<svg xmlns="http://www.w3.org/2000/svg" width="22.25" height="22.25" viewBox="0 0 22.25 22.25">
  <path id="ios-world-outline" d="M12.5,1.875h-.026a10.625,10.625,0,0,0,0,21.25H12.5a10.625,10.625,0,1,0,0-21.25Zm.424,6.359A15.751,15.751,0,0,0,16.2,7.8a19.05,19.05,0,0,1,.547,4.28H12.924V8.234Zm0-.853V2.794c1.144.316,2.309,1.844,3.044,4.189A14.935,14.935,0,0,1,12.924,7.382Zm-.847-4.6v4.6a14.7,14.7,0,0,1-3.07-.409C9.751,4.617,10.922,3.081,12.076,2.784Zm0,5.45v3.842H8.225A19.039,19.039,0,0,1,8.772,7.8a15.991,15.991,0,0,0,3.3.439Zm-4.71,3.842H2.738A9.709,9.709,0,0,1,4.949,6.3a15.47,15.47,0,0,0,3,1.267,19.984,19.984,0,0,0-.587,4.5Zm0,.847a19.81,19.81,0,0,0,.582,4.5,15.858,15.858,0,0,0-3,1.267,9.743,9.743,0,0,1-2.211-5.772Zm.858,0h3.851V16.76a15.634,15.634,0,0,0-3.3.445,19.05,19.05,0,0,1-.547-4.28Zm3.851,4.689V22.22c-1.155-.3-2.324-1.833-3.07-4.194a14.36,14.36,0,0,1,3.07-.413Zm.847,4.593v-4.6a14.946,14.946,0,0,1,3.05.4C15.232,20.362,14.072,21.889,12.922,22.206Zm0-5.445V12.924h3.826A19.044,19.044,0,0,1,16.2,17.2,15.753,15.753,0,0,0,12.922,16.76ZM17.6,12.924h4.659A9.722,9.722,0,0,1,20.049,18.7a15.809,15.809,0,0,0-3.029-1.278,19.646,19.646,0,0,0,.582-4.5Zm0-.847a20.07,20.07,0,0,0-.577-4.5A15.782,15.782,0,0,0,20.049,6.3a9.711,9.711,0,0,1,2.211,5.777H17.6ZM19.466,5.65a14.743,14.743,0,0,1-2.672,1.1,9.55,9.55,0,0,0-2.018-3.76A9.829,9.829,0,0,1,19.466,5.65ZM10.191,3A9.441,9.441,0,0,0,8.183,6.747a14.476,14.476,0,0,1-2.645-1.1A9.708,9.708,0,0,1,10.192,3ZM5.533,19.344a14.67,14.67,0,0,1,2.645-1.1A9.535,9.535,0,0,0,10.191,22a9.726,9.726,0,0,1-4.659-2.651Zm9.245,2.661A9.541,9.541,0,0,0,16.8,18.241a14.744,14.744,0,0,1,2.672,1.1A9.812,9.812,0,0,1,14.778,22.006Z" transform="translate(-1.375 -1.375)" fill="#a6a6a6" stroke="#a6a6a6" stroke-width="1"/>
</svg>
